<svg xmlns="http://www.w3.org/2000/svg" width="32" height="32"><path fill="#5e5e5e" d="M23.999 14c-.009-.133.014-2.297-.877-4.703-.452-1.2-1.15-2.492-2.325-3.542C19.632 4.7 17.945 3.984 16.001 4c-1.947-.017-3.634.7-4.799 1.755-1.759 1.589-2.461 3.659-2.837 5.274C8.001 12.656 8 13.902 8 14H6v16h20V14h-2.001zm-11.99-.238c.025-.62.218-2.335.86-3.64.718-1.327 1.37-2.072 3.132-2.124 1.053.016 1.615.3 2.138.747.773.658 1.335 1.965 1.593 3.163a11.45 11.45 0 0 1 .236 1.527l.031.565h-8l.01-.238z"/></svg>
