<svg xmlns="http://www.w3.org/2000/svg" width="32" height="32"><path fill="#5e5e5e" d="M17.999 13.995c-.011-.495-.099-2.59-.877-4.693-.452-1.199-1.149-2.492-2.325-3.543-1.164-1.054-2.852-1.77-4.797-1.754-1.947-.016-3.633.7-4.799 1.754-1.758 1.592-2.461 3.66-2.835 5.274C2.001 12.662 2.001 13.905 2 14l3.999.005.001-.01s-.001-.05.009-.227c.025-.621.218-2.335.86-3.642C7.588 8.8 8.24 8.054 10 8.005c1.053.014 1.616.3 2.139.744.773.66 1.336 1.966 1.593 3.165a11.62 11.62 0 0 1 .236 1.525l.028.556H12v16h20v-16H17.999z"/></svg>
